<svg width="102" height="102" viewBox="0 0 102 102" fill="none" xmlns="http://www.w3.org/2000/svg">
<g clip-path="url(#clip0_29_42)">
<path d="M9.08465 21.9419C3.35883 30.1868 0 40.1964 0 50.997C0 61.7975 3.35883 71.8071 9.08465 80.0581C15.9423 71.9166 19.6905 61.688 19.6905 51.003C19.6905 40.3181 15.9362 30.0895 9.08465 21.948V21.9419Z" fill="white"/>
<path d="M16.9158 13.0641C14.9687 14.8166 13.1554 16.715 11.5003 18.7413C19.3193 27.6981 23.6091 39.0829 23.6091 50.997C23.6091 62.911 19.3193 74.2958 11.5003 83.2526C13.1615 85.2789 14.9687 87.1773 16.9158 88.9298C26.2926 78.4639 31.4342 65.0712 31.4342 50.997C31.4342 36.9227 26.2986 23.524 16.9158 13.0641Z" fill="white"/>
<path d="M66.1299 50.997C66.1299 61.8401 75.4762 72.3243 92.5077 80.6362C98.483 72.2817 102 62.0531 102 50.997C102 39.9408 98.483 29.7122 92.5077 21.3577C75.4823 29.6696 66.1299 40.1538 66.1299 50.997Z" fill="white"/>
<path d="M34.434 61.5115C32.4991 72.592 27.5217 82.918 19.9217 91.4367C28.5257 98.057 39.3019 102 50.9969 102C58.6456 102 65.8987 100.314 72.4156 97.2964C52.0131 87.226 38.9429 74.8434 34.434 61.5115Z" fill="white"/>
<path d="M72.4156 4.70357C65.9048 1.6855 58.6456 0 50.9969 0C39.3019 0 28.5257 3.94297 19.9217 10.5633C27.5278 19.082 32.5051 29.3836 34.434 40.4763C38.949 27.1505 52.0192 14.774 72.4095 4.70966L72.4156 4.70357Z" fill="white"/>
<path d="M62.2174 50.997C62.2174 38.7482 72.0809 27.1688 90.0555 18.2058C86.3011 13.7395 81.7984 9.93044 76.7419 6.96713C50.8327 19.1307 36.582 34.7261 36.582 50.997C36.582 67.2678 50.8327 82.8632 76.7419 95.0268C81.8045 92.0635 86.3072 88.2483 90.0555 83.7881C72.0809 74.8251 62.2174 63.2518 62.2174 50.997Z" fill="white"/>
</g>
<defs>
<clipPath id="clip0_29_42">
<rect width="102" height="102" fill="white"/>
</clipPath>
</defs>
</svg>
