<svg width="78" height="22" viewBox="0 0 78 22" fill="none" xmlns="http://www.w3.org/2000/svg">
<g clip-path="url(#clip0_216_135)">
<path d="M0 22V0H3.1291V10.0423H3.19134L7.76051 0H10.8896L6.62519 8.80562L11.6858 22H8.37217L4.81383 12.2366L3.12695 15.419V22H0Z" fill="white"/>
<path d="M12.8834 22V6.33452H16.0125V8.00354C16.6456 7.4263 17.2701 6.97445 17.8839 6.64368C18.4977 6.31506 19.2532 6.14859 20.1546 6.14859V9.48664C19.8477 9.36341 19.53 9.30071 19.2038 9.30071C18.8776 9.30071 18.5235 9.35692 18.1458 9.47151C17.7681 9.58393 17.4247 9.77634 17.1178 10.0423C16.7894 10.3103 16.5254 10.6606 16.3194 11.093C16.1155 11.5254 16.0125 12.0615 16.0125 12.6993V22H12.8834Z" fill="white"/>
<path d="M21.4101 3.15212V0H24.5392V3.15212H21.4101ZM21.4101 22V6.33451H24.5392V22H21.4101Z" fill="white"/>
<path d="M27.1146 22V6.33452H30.2437V7.84788H30.3059C30.6321 7.3528 31.027 6.94635 31.4863 6.62638C31.9456 6.30641 32.5336 6.14859 33.2504 6.14859C33.6389 6.14859 34.0273 6.21561 34.4158 6.34965C34.8043 6.48369 35.1519 6.70421 35.4588 7.01337C35.7657 7.32253 36.0104 7.71817 36.195 8.20244C36.3795 8.68672 36.4718 9.27909 36.4718 9.97956V22H33.3427V11.1557C33.3427 10.5784 33.2097 10.1266 32.9435 9.7958C32.6774 9.46718 32.2997 9.30071 31.8082 9.30071C31.2159 9.30071 30.806 9.48664 30.5806 9.85633C30.3553 10.226 30.2437 10.7622 30.2437 11.4627V22H27.1146Z" fill="white"/>
<path d="M39.0451 3.15212V0H42.1742V3.15212H39.0451ZM39.0451 22V6.33451H42.1742V22H39.0451Z" fill="white"/>
<path d="M44.7496 22V0H47.8787V13.1619H47.9409L51.7138 6.33451H54.8429L51.1322 12.6993L55.6113 22H52.2075L49.3853 15.2331L47.883 17.6112V21.9978H44.7539L44.7496 22Z" fill="white"/>
<path d="M62.6635 22V0H65.7926V22H62.6635Z" fill="white"/>
<path d="M68.6449 22V6.33452H71.774V7.84788H71.8362C72.1625 7.3528 72.5573 6.94635 73.0166 6.62638C73.4759 6.30641 74.0639 6.14859 74.7808 6.14859C75.1692 6.14859 75.5577 6.21561 75.9461 6.34965C76.3346 6.48369 76.6823 6.70421 76.9892 7.01337C77.2961 7.32253 77.5407 7.71817 77.7253 8.20244C77.9099 8.68672 78.0022 9.27909 78.0022 9.97956V22H74.873V11.1557C74.873 10.5784 74.74 10.1266 74.4739 9.7958C74.2077 9.46718 73.83 9.30071 73.3385 9.30071C72.7462 9.30071 72.3363 9.48664 72.1109 9.85633C71.8856 10.226 71.774 10.7622 71.774 11.4627V22H68.6449Z" fill="white"/>
</g>
<defs>
<clipPath id="clip0_216_135">
<rect width="78" height="22" fill="white"/>
</clipPath>
</defs>
</svg>
